<?xml version="1.0" standalone="no"?>
<!DOCTYPE svg PUBLIC "-//W3C//DTD SVG 20010904//EN"
 "http://www.w3.org/TR/2001/REC-SVG-20010904/DTD/svg10.dtd">
<svg version="1.0" xmlns="http://www.w3.org/2000/svg"
 width="512.000000pt" height="512.000000pt" viewBox="0 0 512.000000 512.000000"
 preserveAspectRatio="xMidYMid meet">

<g transform="translate(0.000000,512.000000) scale(0.100000,-0.100000)"
fill="#000000" stroke="none">
<path d="M2618 4916 c-87 -36 -152 -82 -219 -154 -208 -228 -209 -573 -2 -801
99 -110 250 -192 313 -170 68 24 68 121 -1 153 -10 4 -11 8 -2 12 47 22 126
90 165 142 158 208 96 514 -131 644 -39 22 -52 38 -31 38 23 0 50 41 50 75 0
33 -27 75 -49 75 -5 0 -15 2 -23 5 -7 2 -39 -6 -70 -19z"/>
<path d="M1912 2962 c-65 -33 -73 -40 -69 -61 8 -43 -9 -67 -95 -132 -113 -87
-248 -227 -315 -326 -30 -46 -57 -83 -59 -83 -3 0 -17 8 -31 17 l-26 18 17
-28 c23 -34 19 -56 -29 -172 -83 -202 -118 -429 -96 -637 33 -322 151 -576
385 -836 42 -46 66 -81 66 -96 0 -39 -36 -74 -77 -78 l-37 -3 94 -71 c239
-180 492 -278 790 -305 346 -33 694 60 995 264 116 80 302 265 382 382 202
298 295 640 265 979 -25 279 -107 512 -263 746 -71 107 -283 327 -337 349 -29
12 -37 12 -72 -5 l-40 -19 1 -330 1 -330 37 250 c30 199 40 249 52 247 8 -2
40 -29 73 -61 l58 -58 -28 -200 -28 -201 105 -140 c103 -139 105 -140 183
-179 44 -21 85 -44 93 -51 9 -9 13 -40 13 -98 l0 -84 -147 74 -148 74 -132
178 c-111 149 -133 183 -133 213 l0 34 -23 -21 c-23 -22 -25 -22 -456 -22
l-432 0 -24 25 c-25 24 -25 27 -25 199 l0 174 -118 4 c-112 3 -122 5 -168 33
-30 19 -60 49 -79 79 -29 48 -30 54 -33 188 -2 76 -7 138 -10 137 -4 0 -40
-17 -80 -37z m278 -765 l-100 -134 35 -146 c19 -80 35 -155 35 -167 0 -31 -44
-70 -78 -70 -58 0 -69 21 -121 226 l-48 191 83 111 84 111 97 4 c54 1 101 4
106 5 4 1 -38 -58 -93 -131z m985 -302 c16 -15 25 -36 25 -55 0 -19 -9 -40
-25 -55 -24 -24 -28 -25 -182 -25 l-158 0 -97 -97 -98 -98 0 -160 0 -161 160
-119 160 -119 0 -279 0 -278 -25 -24 c-15 -16 -36 -25 -55 -25 -19 0 -40 9
-55 25 l-25 24 0 235 0 236 -160 120 -160 120 0 238 0 237 142 142 143 143
193 0 c191 0 193 0 217 -25z"/>
</g>
</svg>
